<?xml version="1.0" encoding="UTF-8" standalone="no"?>
<!-- Generator: Adobe Illustrator 22.1.0, SVG Export Plug-In . SVG Version: 6.00 Build 0)  -->

<svg
   xmlns:dc="http://purl.org/dc/elements/1.1/"
   xmlns:cc="http://creativecommons.org/ns#"
   xmlns:rdf="http://www.w3.org/1999/02/22-rdf-syntax-ns#"
   xmlns:svg="http://www.w3.org/2000/svg"
   xmlns="http://www.w3.org/2000/svg"
   xmlns:xlink="http://www.w3.org/1999/xlink"
   xmlns:sodipodi="http://sodipodi.sourceforge.net/DTD/sodipodi-0.dtd"
   xmlns:inkscape="http://www.inkscape.org/namespaces/inkscape"
   version="1.1"
   id="Layer_1"
   x="0px"
   y="0px"
   viewBox="0 0 636.1 140.4"
   style="enable-background:new 0 0 636.1 140.4;"
   xml:space="preserve"
   sodipodi:docname="logo.svg"
   inkscape:version="0.92.3 (2405546, 2018-03-11)"><metadata
   id="metadata84"><rdf:RDF><cc:Work
       rdf:about=""><dc:format>image/svg+xml</dc:format><dc:type
         rdf:resource="http://purl.org/dc/dcmitype/StillImage" /></cc:Work></rdf:RDF></metadata><defs
   id="defs82"><linearGradient
     inkscape:collect="always"
     xlink:href="#SVGID_1_"
     id="linearGradient2033"
     gradientUnits="userSpaceOnUse"
     x1="-14.647"
     y1="54.2922"
     x2="656.5567"
     y2="54.2922" /><linearGradient
     id="d"
     gradientTransform="matrix(0.45298539,0,0,-0.45298539,-1532.9038,153.68064)"
     gradientUnits="userSpaceOnUse"
     x1="212.481"
     x2="212.481"
     xlink:href="#a"
     y1="510"
     y2="25.587" /><linearGradient
     id="a"><stop
       offset="0"
       stop-color="#00efd1"
       id="stop2" /><stop
       offset="1"
       stop-color="#00acea"
       id="stop4-0" /></linearGradient><linearGradient
     id="c"
     gradientTransform="matrix(0.45298539,0,0,-0.45298539,-1532.9038,153.68064)"
     gradientUnits="userSpaceOnUse"
     x1="299.51901"
     x2="299.51901"
     xlink:href="#a"
     y1="510"
     y2="25.587" /><linearGradient
     id="b"
     gradientTransform="matrix(0.45298539,0,0,-0.45298539,-1532.9038,153.68064)"
     gradientUnits="userSpaceOnUse"
     x1="256"
     x2="256"
     xlink:href="#a"
     y1="510"
     y2="25.587" /></defs><sodipodi:namedview
   pagecolor="#ffffff"
   bordercolor="#666666"
   borderopacity="1"
   objecttolerance="10"
   gridtolerance="10"
   guidetolerance="10"
   inkscape:pageopacity="0"
   inkscape:pageshadow="2"
   inkscape:window-width="1920"
   inkscape:window-height="1017"
   id="namedview80"
   showgrid="false"
   inkscape:zoom="1.5381918"
   inkscape:cx="263.80327"
   inkscape:cy="91.118566"
   inkscape:window-x="0"
   inkscape:window-y="30"
   inkscape:window-maximized="1"
   inkscape:current-layer="g1448"
   inkscape:snap-text-baseline="false"
   showguides="true"
   inkscape:guide-bbox="true"><sodipodi:guide
     position="27.019225,30.197957"
     orientation="0,1"
     id="guide2045"
     inkscape:locked="false" /><sodipodi:guide
     position="101.71943,-54.03845"
     orientation="1,0"
     id="guide2047"
     inkscape:locked="false" /><sodipodi:guide
     position="0,-371.91168"
     orientation="1,0"
     id="guide2049"
     inkscape:locked="false" /><sodipodi:guide
     position="131.97314,42.907525"
     orientation="1,0"
     id="guide925"
     inkscape:locked="false" /></sodipodi:namedview>
<style
   type="text/css"
   id="style2">
	.st0{fill:url(#SVGID_1_);}
	.st1{fill:url(#SVGID_2_);}
	.st2{fill:url(#SVGID_3_);}
	.st3{fill:url(#SVGID_4_);}
	.st4{fill:url(#SVGID_5_);}
	.st5{fill:url(#SVGID_6_);}
	.st6{fill:url(#SVGID_7_);}
	.st7{fill:url(#SVGID_8_);}
	.st8{fill:url(#SVGID_9_);}
</style>
<linearGradient
   id="SVGID_1_"
   gradientUnits="userSpaceOnUse"
   x1="-14.647"
   y1="54.2922"
   x2="656.5567"
   y2="54.2922">
	<stop
   offset="1.502404e-03"
   style="stop-color:#2458ae"
   id="stop4" />
	<stop
   offset="1"
   style="stop-color:#2458ae"
   id="stop6" />
</linearGradient>

<linearGradient
   id="SVGID_2_"
   gradientUnits="userSpaceOnUse"
   x1="-14.647"
   y1="64.76"
   x2="656.5567"
   y2="64.76">
	<stop
   offset="1.502404e-03"
   style="stop-color:#2458ae"
   id="stop11" />
	<stop
   offset="1"
   style="stop-color:#2458ae"
   id="stop13" />
</linearGradient>

<linearGradient
   id="SVGID_3_"
   gradientUnits="userSpaceOnUse"
   x1="-14.647"
   y1="63.9224"
   x2="656.5567"
   y2="63.9224">
	<stop
   offset="1.502404e-03"
   style="stop-color:#2458ae"
   id="stop18" />
	<stop
   offset="1"
   style="stop-color:#2458ae"
   id="stop20" />
</linearGradient>

<linearGradient
   id="SVGID_4_"
   gradientUnits="userSpaceOnUse"
   x1="-14.647"
   y1="82.4849"
   x2="656.5567"
   y2="82.4849">
	<stop
   offset="1.502404e-03"
   style="stop-color:#2458ae"
   id="stop25" />
	<stop
   offset="1"
   style="stop-color:#2458ae"
   id="stop27" />
</linearGradient>

<linearGradient
   id="SVGID_5_"
   gradientUnits="userSpaceOnUse"
   x1="-14.647"
   y1="51.6404"
   x2="656.5567"
   y2="51.6404">
	<stop
   offset="1.502404e-03"
   style="stop-color:#2458ae"
   id="stop32" />
	<stop
   offset="1"
   style="stop-color:#2458ae"
   id="stop34" />
</linearGradient>

<linearGradient
   id="SVGID_6_"
   gradientUnits="userSpaceOnUse"
   x1="-14.647"
   y1="64.4106"
   x2="656.5567"
   y2="64.4106">
	<stop
   offset="1.502404e-03"
   style="stop-color:#2458ae"
   id="stop39" />
	<stop
   offset="1"
   style="stop-color:#2458ae"
   id="stop41" />
</linearGradient>






<g
   transform="matrix(2.9388458,0,0,2.9388458,197.17571,16.092359)"
   id="g1448"><g
     aria-label="SIGA"
     style="font-style:normal;font-weight:normal;font-size:44.63415527px;line-height:1.25;font-family:sans-serif;letter-spacing:0px;word-spacing:0px;fill:#2458ae;fill-opacity:1;stroke:none;stroke-width:1.11585391"
     id="text853"
     transform="translate(9.069776)"><g
       aria-label="Admin"
       style="font-style:normal;font-variant:normal;font-weight:bold;font-stretch:normal;font-size:38.89809799px;line-height:1.25;font-family:'DejaVu Sans';-inkscape-font-specification:'DejaVu Sans, Bold';font-variant-ligatures:normal;font-variant-caps:normal;font-variant-numeric:normal;font-feature-settings:normal;text-align:start;letter-spacing:0px;word-spacing:0px;writing-mode:lr-tb;text-anchor:start;fill:#2458ae;fill-opacity:1;stroke:none;stroke-width:1.08511496"
       id="text848"><g
         id="g867"><path
           inkscape:connector-curvature="0"
           id="path850"
           style="font-style:normal;font-variant:normal;font-weight:bold;font-stretch:normal;font-size:38.89809799px;font-family:'DejaVu Sans';-inkscape-font-specification:'DejaVu Sans, Bold';font-variant-ligatures:normal;font-variant-caps:normal;font-variant-numeric:normal;font-feature-settings:normal;text-align:start;writing-mode:lr-tb;text-anchor:start;fill:#2458ae;fill-opacity:1;stroke-width:1.08511496"
           d="M 12.025211,29.046901 H 0.5912979 l -1.8043551,5.166154 h -7.350373 L 1.939816,5.8561893 H 10.6577 L 21.160946,34.213055 H 13.810573 Z M 2.4146463,23.785781 H 10.18287 L 6.3082547,12.503813 Z" /><path
           inkscape:connector-curvature="0"
           id="path852"
           style="font-style:normal;font-variant:normal;font-weight:bold;font-stretch:normal;font-size:38.89809799px;font-family:'DejaVu Sans';-inkscape-font-specification:'DejaVu Sans, Bold';font-variant-ligatures:normal;font-variant-caps:normal;font-variant-numeric:normal;font-feature-settings:normal;text-align:start;writing-mode:lr-tb;text-anchor:start;fill:#2458ae;fill-opacity:1;stroke-width:1.08511496"
           d="M 36.349388,16.055544 V 4.6596169 h 6.837556 V 34.213055 h -6.837556 v -3.076901 q -1.405498,1.880328 -3.095893,2.754016 -1.690396,0.873688 -3.912602,0.873688 -3.931595,0 -6.457692,-3.114887 -2.526097,-3.13388 -2.526097,-8.053122 0,-4.919242 2.526097,-8.034128 2.526097,-3.13388 6.457692,-3.13388 2.203212,0 3.893608,0.892681 1.709389,0.873687 3.114887,2.735022 z M 31.86699,29.825623 q 2.184219,0 3.323812,-1.59543 1.158586,-1.59543 1.158586,-4.634344 0,-3.038914 -1.158586,-4.634344 -1.139593,-1.595429 -3.323812,-1.595429 -2.165226,0 -3.323812,1.595429 -1.139593,1.59543 -1.139593,4.634344 0,3.038914 1.139593,4.634344 1.158586,1.59543 3.323812,1.59543 z" /><path
           inkscape:connector-curvature="0"
           id="path855"
           style="font-style:normal;font-variant:normal;font-weight:bold;font-stretch:normal;font-size:38.89809799px;font-family:'DejaVu Sans';-inkscape-font-specification:'DejaVu Sans, Bold';font-variant-ligatures:normal;font-variant-caps:normal;font-variant-numeric:normal;font-feature-settings:normal;text-align:start;writing-mode:lr-tb;text-anchor:start;fill:#2458ae;fill-opacity:1;stroke-width:1.08511496"
           d="m 66.751393,16.473395 q 1.291538,-1.975294 3.057907,-3.000928 1.785362,-1.044626 3.912602,-1.044626 3.66569,0 5.584004,2.260192 1.918314,2.260192 1.918314,6.571651 V 34.213055 H 74.386664 V 23.121019 q 0.01899,-0.246912 0.01899,-0.512817 0.01899,-0.265905 0.01899,-0.759728 0,-2.260193 -0.664762,-3.266833 -0.664762,-1.025633 -2.146233,-1.025633 -1.937308,0 -3.000927,1.59543 -1.044627,1.595429 -1.082613,4.61535 V 34.213055 H 60.692558 V 23.121019 q 0,-3.532738 -0.607783,-4.539378 -0.607782,-1.025633 -2.165226,-1.025633 -1.956301,0 -3.01992,1.614423 -1.06362,1.59543 -1.06362,4.577364 v 10.46526 H 46.998452 V 12.940657 h 6.837557 v 3.114887 q 1.253552,-1.804355 2.867975,-2.716029 1.633416,-0.911674 3.589717,-0.911674 2.203212,0 3.893608,1.063619 1.690396,1.06362 2.564084,2.981935 z" /><path
           inkscape:connector-curvature="0"
           id="path857"
           style="font-style:normal;font-variant:normal;font-weight:bold;font-stretch:normal;font-size:38.89809799px;font-family:'DejaVu Sans';-inkscape-font-specification:'DejaVu Sans, Bold';font-variant-ligatures:normal;font-variant-caps:normal;font-variant-numeric:normal;font-feature-settings:normal;text-align:start;writing-mode:lr-tb;text-anchor:start;fill:#2458ae;fill-opacity:1;stroke-width:1.08511496"
           d="m 84.883783,12.940657 h 6.79957 v 21.272398 h -6.79957 z m 0,-8.2810401 h 6.79957 v 5.5460181 h -6.79957 z" /><path
           inkscape:connector-curvature="0"
           id="path859"
           style="font-style:normal;font-variant:normal;font-weight:bold;font-stretch:normal;font-size:38.89809799px;font-family:'DejaVu Sans';-inkscape-font-specification:'DejaVu Sans, Bold';font-variant-ligatures:normal;font-variant-caps:normal;font-variant-numeric:normal;font-feature-settings:normal;text-align:start;writing-mode:lr-tb;text-anchor:start;fill:#2458ae;fill-opacity:1;stroke-width:1.08511496"
           d="m 116.23865,21.259684 v 12.953371 h -6.83755 v -2.108247 -7.80621 q 0,-2.754016 -0.13296,-3.798642 -0.11396,-1.044627 -0.41785,-1.538451 -0.39885,-0.664762 -1.08261,-1.025633 -0.68376,-0.379864 -1.55744,-0.379864 -2.12724,0 -3.34281,1.652409 -1.21556,1.633416 -1.21556,4.539378 v 10.46526 H 94.852308 V 12.940657 h 6.799562 v 3.114887 q 1.53845,-1.861335 3.26683,-2.735022 1.72838,-0.892681 3.81763,-0.892681 3.68469,0 5.58401,2.260192 1.91831,2.260192 1.91831,6.571651 z" /></g></g></g><g
     id="g930"><path
       id="path10"
       d="m -53.044309,17.959937 c 0,7.476445 6.061222,13.537643 13.538069,13.537643 7.476474,0 13.537636,-6.061198 13.537636,-13.537643 0,-7.476881 -6.061162,-13.5376407 -13.537636,-13.5376407 -7.473386,0.00869 -13.528971,6.0646707 -13.538069,13.5376407 z m 24.795306,-1.112386 h -3.081228 c -0.07039,-1.449142 -0.321095,-2.88438 -0.745604,-4.27182 0.593571,-0.392812 1.154961,-0.831681 1.679849,-1.312266 1.210612,1.630775 1.953189,3.561805 2.146983,5.584086 z m -2.146983,7.80886 c -0.521861,-0.484063 -1.083727,-0.922935 -1.679849,-1.312704 0.420151,-1.388307 0.670435,-2.822676 0.745604,-4.271385 h 3.081228 c -0.193794,2.021847 -0.936371,3.952879 -2.146983,5.584089 z m -20.367925,-5.584089 h 3.081652 c 0.07213,1.436977 0.318492,2.860481 0.733912,4.237926 -0.60055,0.392814 -1.169326,0.831683 -1.70204,1.312704 -1.18715,-1.628167 -1.917117,-3.54486 -2.113524,-5.55063 z m 2.124802,-7.775834 c 0.52973,0.484495 1.098938,0.923368 1.702039,1.312702 -0.416699,1.377446 -0.66305,2.800951 -0.734336,4.238361 h -3.081228 c 0.185977,-2.008376 0.916854,-3.927676 2.113525,-5.551063 z m 8.020516,3.459693 v 2.09137 h -4.828057 c 0.06305,-1.067629 0.234226,-2.126132 0.511916,-3.159434 1.37003,0.59052 2.828324,0.951609 4.316141,1.068064 z m -3.559683,-3.159001 c 0.834289,-1.7911136 2.035319,-3.2706712 3.559683,-4.3161412 v 5.2503722 c -1.228426,-0.122972 -2.429457,-0.438002 -3.559683,-0.934231 z m 3.559683,7.475142 v 2.091373 c -1.488294,0.120365 -2.946534,0.484495 -4.316141,1.078927 -0.27769,-1.032868 -0.448879,-2.091373 -0.511916,-3.159437 h 4.828057 z m 0,4.316142 v 5.25037 c -1.524364,-1.045901 -2.725394,-2.514161 -3.559683,-4.316141 1.130226,-0.496227 2.331257,-0.811694 3.559683,-0.934229 z m 2.224757,0.01093 c 1.225814,0.121225 2.424241,0.440607 3.548346,0.945525 -0.834289,1.779815 -2.035795,3.25938 -3.548346,4.293982 z m 0,-2.235635 V 19.07234 h 4.827572 c -0.0621,1.075877 -0.237252,2.142201 -0.52276,3.181153 -1.363069,-0.603992 -2.818759,-0.972468 -4.304812,-1.08979 z m 0,-4.316142 v -2.091414 c 1.488664,-0.124275 2.946525,-0.492319 4.315716,-1.090226 0.281089,1.040254 0.456214,2.106146 0.523142,3.181595 z m 0,-4.327439 V 7.2810449 c 1.512551,1.0346045 2.714057,2.5137288 3.548346,4.2935441 -1.124105,0.50492 -2.322532,0.824296 -3.548346,0.945529 z m -7.72023,-2.035334 c -0.365408,-0.26028 -0.714808,-0.5422871 -1.045476,-0.8455861 0.824345,-0.7612889 1.758105,-1.3948262 2.769707,-1.8797569 -0.684384,0.8342882 -1.263218,1.7493981 -1.724231,2.725343 z m 0,14.950283 c 0.463615,0.974205 1.04245,1.889316 1.724231,2.725345 -1.01027,-0.487972 -1.943235,-1.121511 -2.769707,-1.879755 0.33328,-0.300259 0.68262,-0.582268 1.045476,-0.84559 z m 13.203941,0.03346 c 0.360193,0.262884 0.705227,0.544892 1.034623,0.845147 -0.81567,0.747822 -1.737678,1.370058 -2.736238,1.846736 0.666559,-0.83038 1.237524,-1.73332 1.701615,-2.691883 z m 0,-15.017204 c -0.464091,-0.9585623 -1.035056,-1.861508 -1.701615,-2.6918841 0.995957,0.4805842 1.917593,1.1023905 2.736238,1.8462972 -0.326361,0.3037334 -0.671818,0.5861749 -1.034623,0.8455869 z m 0,0"
       style="fill:#2458ae;fill-opacity:1;stroke-width:0.11123852"
       inkscape:connector-curvature="0" /><path
       id="path12"
       d="m -17.726091,11.496806 c -0.203802,-0.31851 -0.555753,-0.511437 -0.934193,-0.511437 -0.378501,0 -0.730452,0.192927 -0.934253,0.511437 l -5.561908,8.72136 c -0.221615,0.346317 -0.234648,0.786926 -0.03356,1.145409 0.194219,0.361959 0.567929,0.591825 0.978981,0.600948 h 4.148836 c -0.800822,4.449542 -3.236773,8.631852 -6.941098,11.646585 -3.637456,2.969988 -8.209529,4.660722 -12.536523,4.660722 -2.825721,0 -5.773527,-0.723053 -8.531897,-2.102235 -2.838753,-1.406125 -5.325131,-3.432746 -7.275284,-5.929099 -0.241991,-0.314596 -0.633949,-0.476241 -1.027609,-0.423661 -0.393714,0.05304 -0.729172,0.311985 -0.879502,0.679597 -0.150763,0.367172 -0.09384,0.78736 0.149481,1.101085 2.15219,2.765757 4.901471,5.009645 8.042647,6.563073 3.070325,1.52432 6.362739,2.325147 9.522164,2.325147 4.827581,0 9.911094,-1.868892 13.938267,-5.150431 4.227092,-3.448393 6.974557,-8.14257 7.786716,-13.370783 h 4.705021 c 0.410196,-0.01046 0.783059,-0.238989 0.978556,-0.599643 0.195127,-0.360657 0.182519,-0.798225 -0.03294,-1.146714 z m -4.460366,8.242947 3.526173,-5.539765 3.526164,5.539765 z m 0,0"
       style="fill:#2458ae;fill-opacity:1;stroke-width:0.11123852"
       inkscape:connector-curvature="0" /><path
       id="path14"
       d="m -53.822948,14.555864 c -0.19428,-0.36196 -0.567937,-0.591389 -0.978567,-0.600513 h -4.138406 c 0.801254,-4.4495419 3.237196,-8.6322833 6.941521,-11.6465868 3.637404,-2.97041549 8.209477,-4.6611544 12.536472,-4.6611544 2.825297,0 5.773104,0.7230505 8.531904,2.10266915 2.838754,1.40612355 5.325124,3.43231595 7.275278,5.92866555 0.37499,0.4840605 1.071125,0.5731384 1.556015,0.1985775 0.484518,-0.374126 0.5749,-1.0702359 0.20119,-1.5556015 -2.151767,-2.765754 -4.900995,-5.00920905 -8.042171,-6.5630722 -3.070376,-1.523881 -6.363214,-2.3247116 -9.522216,-2.3247116 -4.827581,0 -9.911517,1.8688941 -13.938268,5.15043061 -4.237945,3.44839459 -6.974556,8.14257309 -7.797517,13.37078369 h -4.716824 c -0.409721,0.0099 -0.783008,0.238989 -0.978135,0.599645 -0.195075,0.360219 -0.182889,0.797789 0.03244,1.146713 l 5.561915,8.720926 c 0.203801,0.31894 0.556228,0.511871 0.934721,0.511871 0.378025,0 0.7304,-0.192931 0.934201,-0.511871 l 5.561909,-8.732226 c 0.23029,-0.338494 0.24768,-0.778669 0.04419,-1.134545 z m -6.52962,7.164022 -3.526226,-5.539766 h 7.063666 z m 0,0"
       style="fill:#2458ae;fill-opacity:1;stroke-width:0.11123852"
       inkscape:connector-curvature="0" /></g></g></svg>