<svg height="494pt" viewBox="0 -44 494.77154 494" width="494pt" xmlns="http://www.w3.org/2000/svg" xmlns:xlink="http://www.w3.org/1999/xlink"><linearGradient id="a"><stop offset="0" stop-color="#00efd1"/><stop offset="1" stop-color="#00acea"/></linearGradient><linearGradient id="b" gradientTransform="matrix(1 0 0 -1 -8.564228 460.88577)" gradientUnits="userSpaceOnUse" x1="256" x2="256" xlink:href="#a" y1="510" y2="25.587"/><linearGradient id="c" gradientTransform="matrix(1 0 0 -1 -8.564228 460.88577)" gradientUnits="userSpaceOnUse" x1="299.519" x2="299.519" xlink:href="#a" y1="510" y2="25.587"/><linearGradient id="d" gradientTransform="matrix(1 0 0 -1 -8.564228 460.88577)" gradientUnits="userSpaceOnUse" x1="212.481" x2="212.481" xlink:href="#a" y1="510" y2="25.587"/><path d="m125.734375 202.886719c0 67.210937 54.488281 121.699219 121.703125 121.699219 67.210938 0 121.699219-54.488282 121.699219-121.699219 0-67.214844-54.488281-121.699219-121.699219-121.699219-67.183594.078125-121.621094 54.519531-121.703125 121.699219zm222.902344-10h-27.699219c-.632812-13.027344-2.886719-25.929688-6.703125-38.402344 5.335937-3.53125 10.382813-7.476563 15.101563-11.796875 10.882812 14.660156 17.558593 32.019531 19.300781 50.199219zm-19.300781 70.199219c-4.691407-4.351563-9.742188-8.296876-15.101563-11.800782 3.777344-12.480468 6.027344-25.375 6.703125-38.398437h27.699219c-1.742188 18.175781-8.417969 35.535156-19.300781 50.199219zm-183.101563-50.199219h27.703125c.648438 12.917969 2.863281 25.714843 6.597656 38.097656-5.398437 3.53125-10.511718 7.476563-15.300781 11.800781-10.671875-14.636718-17.234375-31.867187-19-49.898437zm19.101563-69.902344c4.761718 4.355469 9.878906 8.300781 15.300781 11.800781-3.746094 12.382813-5.960938 25.179688-6.601563 38.101563h-27.699218c1.671874-18.054688 8.242187-35.308594 19-49.902344zm72.101562 31.101563v18.800781h-43.402344c.566406-9.597657 2.105469-19.113281 4.601563-28.402344 12.316406 5.308594 25.425781 8.554687 38.800781 9.601563zm-32-28.398438c7.5-16.101562 18.296875-29.402344 32-38.800781v47.199219c-11.042969-1.105469-21.839844-3.9375-32-8.398438zm32 67.199219v18.800781c-13.378906 1.082031-26.488281 4.355469-38.800781 9.699219-2.496094-9.285157-4.035157-18.800781-4.601563-28.402344h43.402344zm0 38.800781v47.199219c-13.703125-9.402344-24.5-22.601563-32-38.800781 10.160156-4.460938 20.957031-7.296876 32-8.398438zm20 .097656c11.019531 1.089844 21.792969 3.960938 31.898438 8.5-7.5 16-18.300782 29.300782-31.898438 38.601563zm0-20.097656v-18.800781h43.398438c-.558594 9.671875-2.132813 19.257812-4.699219 28.597656-12.253907-5.429687-25.339844-8.742187-38.699219-9.796875zm0-38.800781v-18.800781c13.382812-1.117188 26.488281-4.425782 38.796875-9.800782 2.527344 9.351563 4.101563 18.933594 4.703125 28.601563zm0-38.902344v-47.097656c13.597656 9.300781 24.398438 22.597656 31.898438 38.597656-10.105469 4.539063-20.878907 7.410156-31.898438 8.5zm-69.402344-18.296875c-3.285156-2.339844-6.425781-4.875-9.398437-7.601562 7.410156-6.84375 15.804687-12.539063 24.898437-16.898438-6.152344 7.5-11.355468 15.726562-15.5 24.5zm0 134.398438c4.167969 8.757812 9.371094 16.984374 15.5 24.5-9.082031-4.386719-17.46875-10.082032-24.898437-16.898438 2.996093-2.699219 6.136719-5.234375 9.398437-7.601562zm118.699219.300781c3.238281 2.363281 6.339844 4.898437 9.300781 7.597656-7.332031 6.722656-15.621094 12.316406-24.597656 16.601563 5.992188-7.464844 11.125-15.582032 15.296875-24.199219zm0-135c-4.171875-8.617188-9.304687-16.734375-15.296875-24.199219 8.953125 4.320312 17.238281 9.910156 24.597656 16.597656-2.933594 2.730469-6.039062 5.269532-9.300781 7.601563zm0 0" fill="url(#b)"/><path d="m443.234375 144.785156c-1.832031-2.863281-4.996094-4.597656-8.398437-4.597656-3.402344 0-6.566407 1.734375-8.398438 4.597656l-50 78.402344c-1.992188 3.113281-2.109375 7.074219-.300781 10.296875 1.746093 3.253906 5.105469 5.320313 8.800781 5.402344h37.296875c-7.199219 40-29.097656 77.597656-62.398437 104.699219-32.699219 26.699218-73.800782 41.898437-112.699219 41.898437-25.402344 0-51.902344-6.5-76.699219-18.898437-25.519531-12.640626-47.871094-30.859376-65.402344-53.300782-2.175781-2.828125-5.699218-4.28125-9.238281-3.808594-3.539063.476563-6.554687 2.804688-7.90625 6.109376-1.355469 3.300781-.84375 7.078124 1.34375 9.898437 19.347656 24.863281 44.0625 45.035156 72.300781 59 27.601563 13.703125 57.199219 20.902344 85.601563 20.902344 43.398437 0 89.097656-16.800781 125.300781-46.300781 38-31 62.699219-73.199219 70-120.199219h42.296875c3.6875-.09375 7.039063-2.148438 8.796875-5.390625 1.753906-3.242188 1.640625-7.175782-.296875-10.308594zm-40.097656 74.101563 31.699219-49.800781 31.699218 49.800781zm0 0" fill="url(#c)"/><path d="m118.734375 172.285156c-1.746094-3.253906-5.105469-5.316406-8.796875-5.398437h-37.203125c7.203125-40 29.101563-77.601563 62.402344-104.699219 32.699219-26.703125 73.800781-41.902344 112.699219-41.902344 25.398437 0 51.898437 6.5 76.699218 18.902344 25.519532 12.640625 47.871094 30.855469 65.402344 53.296875 3.371094 4.351563 9.628906 5.152344 13.988281 1.785156 4.355469-3.363281 5.167969-9.621093 1.808594-13.984375-19.34375-24.863281-44.058594-45.03125-72.296875-59-27.601562-13.699218-57.203125-20.898437-85.601562-20.898437-43.398438 0-89.101563 16.800781-125.300782 46.300781-38.097656 31-62.699218 73.199219-70.097656 120.199219h-42.402344c-3.683594.089843-7.039062 2.148437-8.792968 5.390625-1.753907 3.238281-1.644532 7.171875.292968 10.308594l50 78.398437c1.832032 2.867187 5 4.601563 8.402344 4.601563 3.398438 0 6.566406-1.734376 8.398438-4.601563l50-78.5c2.070312-3.042969 2.226562-7 .398437-10.199219zm-58.699219 64.402344-31.699218-49.800781h63.5zm0 0" fill="url(#d)"/></svg>